<mxfile host="app.diagrams.net" agent="Mozilla/5.0 (Macintosh; Intel Mac OS X 10_15_7) AppleWebKit/605.1.15 (KHTML, like Gecko) Version/18.6 Safari/605.1.15" version="28.2.7">
  <diagram name="Seite-1" id="XIeMqs0HiJgNldna1DdT">
    <mxGraphModel dx="1452" dy="979" grid="1" gridSize="10" guides="1" tooltips="1" connect="1" arrows="1" fold="1" page="1" pageScale="1" pageWidth="827" pageHeight="1169" background="#FFFFFF" math="0" shadow="0">
      <root>
        <mxCell id="0" />
        <mxCell id="1" parent="0" />
        <mxCell id="S2qD3MZKqQ3I_0Lx5R0i-1" value="Spielzug" style="shape=umlFrame;whiteSpace=wrap;html=1;pointerEvents=0;" parent="1" vertex="1">
          <mxGeometry x="10" y="220" width="2090" height="490" as="geometry" />
        </mxCell>
        <mxCell id="S2qD3MZKqQ3I_0Lx5R0i-11" style="edgeStyle=orthogonalEdgeStyle;rounded=0;orthogonalLoop=1;jettySize=auto;html=1;entryX=0;entryY=0.5;entryDx=0;entryDy=0;" parent="1" source="S2qD3MZKqQ3I_0Lx5R0i-2" target="S2qD3MZKqQ3I_0Lx5R0i-6" edge="1">
          <mxGeometry relative="1" as="geometry" />
        </mxCell>
        <mxCell id="S2qD3MZKqQ3I_0Lx5R0i-2" value="Spieler in aktivem Spielraum und am Zug&amp;nbsp;" style="rounded=1;whiteSpace=wrap;html=1;" parent="1" vertex="1">
          <mxGeometry x="30" y="420" width="120" height="60" as="geometry" />
        </mxCell>
        <mxCell id="S2qD3MZKqQ3I_0Lx5R0i-3" value="Kartenaktion verwenden&amp;nbsp;" style="rounded=1;whiteSpace=wrap;html=1;" parent="1" vertex="1">
          <mxGeometry x="360" y="230" width="120" height="60" as="geometry" />
        </mxCell>
        <mxCell id="S2qD3MZKqQ3I_0Lx5R0i-59" style="edgeStyle=orthogonalEdgeStyle;rounded=0;orthogonalLoop=1;jettySize=auto;html=1;exitX=1;exitY=0.5;exitDx=0;exitDy=0;entryX=0;entryY=0.5;entryDx=0;entryDy=0;" parent="1" source="S2qD3MZKqQ3I_0Lx5R0i-6" target="S2qD3MZKqQ3I_0Lx5R0i-7" edge="1">
          <mxGeometry relative="1" as="geometry" />
        </mxCell>
        <mxCell id="S2qD3MZKqQ3I_0Lx5R0i-60" value="keine Karten vorhanden" style="edgeLabel;html=1;align=center;verticalAlign=middle;resizable=0;points=[];" parent="S2qD3MZKqQ3I_0Lx5R0i-59" vertex="1" connectable="0">
          <mxGeometry x="-0.1714" y="2" relative="1" as="geometry">
            <mxPoint y="10" as="offset" />
          </mxGeometry>
        </mxCell>
        <mxCell id="S2qD3MZKqQ3I_0Lx5R0i-6" value="" style="rhombus;whiteSpace=wrap;html=1;" parent="1" vertex="1">
          <mxGeometry x="180" y="435" width="20" height="30" as="geometry" />
        </mxCell>
        <mxCell id="S2qD3MZKqQ3I_0Lx5R0i-40" value="" style="edgeStyle=orthogonalEdgeStyle;rounded=0;orthogonalLoop=1;jettySize=auto;html=1;" parent="1" source="S2qD3MZKqQ3I_0Lx5R0i-7" target="S2qD3MZKqQ3I_0Lx5R0i-39" edge="1">
          <mxGeometry relative="1" as="geometry" />
        </mxCell>
        <mxCell id="S2qD3MZKqQ3I_0Lx5R0i-7" value="Truppen verteilen" style="rounded=1;whiteSpace=wrap;html=1;" parent="1" vertex="1">
          <mxGeometry x="460" y="420" width="120" height="60" as="geometry" />
        </mxCell>
        <mxCell id="S2qD3MZKqQ3I_0Lx5R0i-66" value="" style="edgeStyle=orthogonalEdgeStyle;rounded=0;orthogonalLoop=1;jettySize=auto;html=1;" parent="1" source="S2qD3MZKqQ3I_0Lx5R0i-12" target="S2qD3MZKqQ3I_0Lx5R0i-45" edge="1">
          <mxGeometry relative="1" as="geometry" />
        </mxCell>
        <mxCell id="S2qD3MZKqQ3I_0Lx5R0i-12" value="Angreifen" style="rounded=1;whiteSpace=wrap;html=1;" parent="1" vertex="1">
          <mxGeometry x="1160" y="360" width="120" height="60" as="geometry" />
        </mxCell>
        <mxCell id="S2qD3MZKqQ3I_0Lx5R0i-68" value="" style="edgeStyle=orthogonalEdgeStyle;rounded=0;orthogonalLoop=1;jettySize=auto;html=1;" parent="1" source="S2qD3MZKqQ3I_0Lx5R0i-13" target="S2qD3MZKqQ3I_0Lx5R0i-43" edge="1">
          <mxGeometry relative="1" as="geometry" />
        </mxCell>
        <mxCell id="S2qD3MZKqQ3I_0Lx5R0i-13" value="Truppen verschieben" style="rounded=1;whiteSpace=wrap;html=1;" parent="1" vertex="1">
          <mxGeometry x="1160" y="497.54" width="120" height="60" as="geometry" />
        </mxCell>
        <mxCell id="S2qD3MZKqQ3I_0Lx5R0i-89" value="" style="edgeStyle=orthogonalEdgeStyle;rounded=0;orthogonalLoop=1;jettySize=auto;html=1;" parent="1" source="S2qD3MZKqQ3I_0Lx5R0i-15" target="S2qD3MZKqQ3I_0Lx5R0i-88" edge="1">
          <mxGeometry relative="1" as="geometry" />
        </mxCell>
        <mxCell id="S2qD3MZKqQ3I_0Lx5R0i-15" value="Zug beenden" style="rounded=1;whiteSpace=wrap;html=1;" parent="1" vertex="1">
          <mxGeometry x="1930" y="430" width="120" height="60" as="geometry" />
        </mxCell>
        <mxCell id="S2qD3MZKqQ3I_0Lx5R0i-20" style="edgeStyle=orthogonalEdgeStyle;rounded=0;orthogonalLoop=1;jettySize=auto;html=1;entryX=0;entryY=0.5;entryDx=0;entryDy=0;exitX=0.5;exitY=0;exitDx=0;exitDy=0;" parent="1" source="5MxlWK7CNzng2qLuo6eM-1" target="S2qD3MZKqQ3I_0Lx5R0i-3" edge="1">
          <mxGeometry relative="1" as="geometry">
            <mxPoint x="225.856" y="319.79999999999995" as="sourcePoint" />
          </mxGeometry>
        </mxCell>
        <mxCell id="5MxlWK7CNzng2qLuo6eM-4" value="Karten nutzen" style="edgeLabel;html=1;align=center;verticalAlign=middle;resizable=0;points=[];" vertex="1" connectable="0" parent="S2qD3MZKqQ3I_0Lx5R0i-20">
          <mxGeometry x="-0.0452" y="1" relative="1" as="geometry">
            <mxPoint as="offset" />
          </mxGeometry>
        </mxCell>
        <mxCell id="S2qD3MZKqQ3I_0Lx5R0i-21" style="edgeStyle=orthogonalEdgeStyle;rounded=0;orthogonalLoop=1;jettySize=auto;html=1;exitX=1;exitY=0.5;exitDx=0;exitDy=0;entryX=0;entryY=0.25;entryDx=0;entryDy=0;" parent="1" source="5MxlWK7CNzng2qLuo6eM-1" target="S2qD3MZKqQ3I_0Lx5R0i-7" edge="1">
          <mxGeometry relative="1" as="geometry">
            <mxPoint x="224.712" y="338.76" as="sourcePoint" />
            <mxPoint x="460" y="420" as="targetPoint" />
            <Array as="points">
              <mxPoint x="270" y="300" />
              <mxPoint x="270" y="360" />
              <mxPoint x="430" y="360" />
              <mxPoint x="430" y="435" />
            </Array>
          </mxGeometry>
        </mxCell>
        <mxCell id="5MxlWK7CNzng2qLuo6eM-5" value="keine Karten nutzen" style="edgeLabel;html=1;align=center;verticalAlign=middle;resizable=0;points=[];" vertex="1" connectable="0" parent="S2qD3MZKqQ3I_0Lx5R0i-21">
          <mxGeometry x="-0.3951" y="-1" relative="1" as="geometry">
            <mxPoint x="67" y="-11" as="offset" />
          </mxGeometry>
        </mxCell>
        <mxCell id="S2qD3MZKqQ3I_0Lx5R0i-47" style="edgeStyle=orthogonalEdgeStyle;rounded=0;orthogonalLoop=1;jettySize=auto;html=1;entryX=0;entryY=0.5;entryDx=0;entryDy=0;exitX=1;exitY=0.5;exitDx=0;exitDy=0;" parent="1" source="5MxlWK7CNzng2qLuo6eM-6" target="S2qD3MZKqQ3I_0Lx5R0i-12" edge="1">
          <mxGeometry relative="1" as="geometry">
            <mxPoint x="1063.6639999999998" y="442.96000000000004" as="sourcePoint" />
          </mxGeometry>
        </mxCell>
        <mxCell id="5MxlWK7CNzng2qLuo6eM-9" value="angreifen" style="edgeLabel;html=1;align=center;verticalAlign=middle;resizable=0;points=[];" vertex="1" connectable="0" parent="S2qD3MZKqQ3I_0Lx5R0i-47">
          <mxGeometry x="0.1385" y="1" relative="1" as="geometry">
            <mxPoint as="offset" />
          </mxGeometry>
        </mxCell>
        <mxCell id="S2qD3MZKqQ3I_0Lx5R0i-42" value="" style="edgeStyle=orthogonalEdgeStyle;rounded=0;orthogonalLoop=1;jettySize=auto;html=1;" parent="1" source="S2qD3MZKqQ3I_0Lx5R0i-34" target="S2qD3MZKqQ3I_0Lx5R0i-36" edge="1">
          <mxGeometry relative="1" as="geometry" />
        </mxCell>
        <mxCell id="S2qD3MZKqQ3I_0Lx5R0i-34" value="Anzahl auswÃ¤hlen&amp;nbsp;" style="rounded=1;whiteSpace=wrap;html=1;" parent="1" vertex="1">
          <mxGeometry x="760" y="420" width="120" height="60" as="geometry" />
        </mxCell>
        <mxCell id="S2qD3MZKqQ3I_0Lx5R0i-38" style="edgeStyle=orthogonalEdgeStyle;rounded=0;orthogonalLoop=1;jettySize=auto;html=1;exitX=0.5;exitY=1;exitDx=0;exitDy=0;entryX=0.5;entryY=1;entryDx=0;entryDy=0;" parent="1" source="S2qD3MZKqQ3I_0Lx5R0i-36" target="S2qD3MZKqQ3I_0Lx5R0i-7" edge="1">
          <mxGeometry relative="1" as="geometry" />
        </mxCell>
        <mxCell id="S2qD3MZKqQ3I_0Lx5R0i-65" value="&lt;span style=&quot;font-size: 12px; white-space: normal; background-color: rgb(236, 236, 236);&quot;&gt;nicht alle Truppen verteilt&lt;/span&gt;" style="edgeLabel;html=1;align=center;verticalAlign=middle;resizable=0;points=[];" parent="S2qD3MZKqQ3I_0Lx5R0i-38" vertex="1" connectable="0">
          <mxGeometry x="0.222" y="-3" relative="1" as="geometry">
            <mxPoint x="213" y="33" as="offset" />
          </mxGeometry>
        </mxCell>
        <mxCell id="S2qD3MZKqQ3I_0Lx5R0i-36" value="" style="rhombus;whiteSpace=wrap;html=1;" parent="1" vertex="1">
          <mxGeometry x="910" y="435" width="20" height="30" as="geometry" />
        </mxCell>
        <mxCell id="S2qD3MZKqQ3I_0Lx5R0i-37" style="edgeStyle=orthogonalEdgeStyle;rounded=0;orthogonalLoop=1;jettySize=auto;html=1;exitX=1;exitY=0.5;exitDx=0;exitDy=0;entryX=0;entryY=0.5;entryDx=0;entryDy=0;" parent="1" source="S2qD3MZKqQ3I_0Lx5R0i-36" target="5MxlWK7CNzng2qLuo6eM-6" edge="1">
          <mxGeometry relative="1" as="geometry">
            <mxPoint x="1061" y="461.1999999999998" as="targetPoint" />
          </mxGeometry>
        </mxCell>
        <mxCell id="S2qD3MZKqQ3I_0Lx5R0i-62" value="" style="edgeStyle=orthogonalEdgeStyle;rounded=0;orthogonalLoop=1;jettySize=auto;html=1;" parent="1" source="S2qD3MZKqQ3I_0Lx5R0i-39" target="S2qD3MZKqQ3I_0Lx5R0i-34" edge="1">
          <mxGeometry relative="1" as="geometry" />
        </mxCell>
        <mxCell id="S2qD3MZKqQ3I_0Lx5R0i-39" value="auf ein eigenes Land klicken" style="rounded=1;whiteSpace=wrap;html=1;" parent="1" vertex="1">
          <mxGeometry x="610" y="420" width="120" height="60" as="geometry" />
        </mxCell>
        <mxCell id="S2qD3MZKqQ3I_0Lx5R0i-69" value="" style="edgeStyle=orthogonalEdgeStyle;rounded=0;orthogonalLoop=1;jettySize=auto;html=1;" parent="1" source="S2qD3MZKqQ3I_0Lx5R0i-43" target="S2qD3MZKqQ3I_0Lx5R0i-44" edge="1">
          <mxGeometry relative="1" as="geometry" />
        </mxCell>
        <mxCell id="S2qD3MZKqQ3I_0Lx5R0i-43" value="auf ein eigenes Land klicken (von wo)" style="rounded=1;whiteSpace=wrap;html=1;" parent="1" vertex="1">
          <mxGeometry x="1320" y="497.54" width="120" height="60" as="geometry" />
        </mxCell>
        <mxCell id="5MxlWK7CNzng2qLuo6eM-7" style="edgeStyle=orthogonalEdgeStyle;rounded=0;orthogonalLoop=1;jettySize=auto;html=1;exitX=1;exitY=0.5;exitDx=0;exitDy=0;entryX=0;entryY=0.5;entryDx=0;entryDy=0;" edge="1" parent="1" source="S2qD3MZKqQ3I_0Lx5R0i-44" target="S2qD3MZKqQ3I_0Lx5R0i-53">
          <mxGeometry relative="1" as="geometry" />
        </mxCell>
        <mxCell id="S2qD3MZKqQ3I_0Lx5R0i-44" value="auf ein eigenes Land klicken (nach wo)" style="rounded=1;whiteSpace=wrap;html=1;" parent="1" vertex="1">
          <mxGeometry x="1480" y="497.54" width="120" height="60" as="geometry" />
        </mxCell>
        <mxCell id="S2qD3MZKqQ3I_0Lx5R0i-67" value="" style="edgeStyle=orthogonalEdgeStyle;rounded=0;orthogonalLoop=1;jettySize=auto;html=1;" parent="1" source="S2qD3MZKqQ3I_0Lx5R0i-45" target="S2qD3MZKqQ3I_0Lx5R0i-46" edge="1">
          <mxGeometry relative="1" as="geometry" />
        </mxCell>
        <mxCell id="S2qD3MZKqQ3I_0Lx5R0i-45" value="auf ein eigenes Land klicken" style="rounded=1;whiteSpace=wrap;html=1;" parent="1" vertex="1">
          <mxGeometry x="1320" y="360" width="120" height="60" as="geometry" />
        </mxCell>
        <mxCell id="5MxlWK7CNzng2qLuo6eM-8" style="edgeStyle=orthogonalEdgeStyle;rounded=0;orthogonalLoop=1;jettySize=auto;html=1;exitX=1;exitY=0.5;exitDx=0;exitDy=0;entryX=0;entryY=0.5;entryDx=0;entryDy=0;" edge="1" parent="1" source="S2qD3MZKqQ3I_0Lx5R0i-46" target="S2qD3MZKqQ3I_0Lx5R0i-53">
          <mxGeometry relative="1" as="geometry" />
        </mxCell>
        <mxCell id="S2qD3MZKqQ3I_0Lx5R0i-46" value="auf ein gegnerisches Nachbarland klicken" style="rounded=1;whiteSpace=wrap;html=1;" parent="1" vertex="1">
          <mxGeometry x="1480" y="360" width="120" height="60" as="geometry" />
        </mxCell>
        <mxCell id="S2qD3MZKqQ3I_0Lx5R0i-48" style="edgeStyle=orthogonalEdgeStyle;rounded=0;orthogonalLoop=1;jettySize=auto;html=1;entryX=0;entryY=0.367;entryDx=0;entryDy=0;entryPerimeter=0;exitX=0.5;exitY=1;exitDx=0;exitDy=0;" parent="1" source="5MxlWK7CNzng2qLuo6eM-6" target="S2qD3MZKqQ3I_0Lx5R0i-13" edge="1">
          <mxGeometry relative="1" as="geometry">
            <mxPoint x="1062.8320000000003" y="490.96000000000004" as="sourcePoint" />
          </mxGeometry>
        </mxCell>
        <mxCell id="5MxlWK7CNzng2qLuo6eM-10" value="Truppen verschieben" style="edgeLabel;html=1;align=center;verticalAlign=middle;resizable=0;points=[];" vertex="1" connectable="0" parent="S2qD3MZKqQ3I_0Lx5R0i-48">
          <mxGeometry x="0.0576" y="-1" relative="1" as="geometry">
            <mxPoint y="7" as="offset" />
          </mxGeometry>
        </mxCell>
        <mxCell id="S2qD3MZKqQ3I_0Lx5R0i-85" style="edgeStyle=orthogonalEdgeStyle;rounded=0;orthogonalLoop=1;jettySize=auto;html=1;exitX=1;exitY=0.5;exitDx=0;exitDy=0;entryX=0;entryY=0.5;entryDx=0;entryDy=0;" parent="1" source="S2qD3MZKqQ3I_0Lx5R0i-53" target="S2qD3MZKqQ3I_0Lx5R0i-15" edge="1">
          <mxGeometry relative="1" as="geometry" />
        </mxCell>
        <mxCell id="S2qD3MZKqQ3I_0Lx5R0i-86" value="kein neuer Zug mÃ¶glich" style="edgeLabel;html=1;align=center;verticalAlign=middle;resizable=0;points=[];" parent="S2qD3MZKqQ3I_0Lx5R0i-85" vertex="1" connectable="0">
          <mxGeometry x="-0.3303" y="3" relative="1" as="geometry">
            <mxPoint x="-3" y="18" as="offset" />
          </mxGeometry>
        </mxCell>
        <mxCell id="S2qD3MZKqQ3I_0Lx5R0i-53" value="" style="rhombus;whiteSpace=wrap;html=1;" parent="1" vertex="1">
          <mxGeometry x="1690" y="445" width="20" height="30" as="geometry" />
        </mxCell>
        <mxCell id="S2qD3MZKqQ3I_0Lx5R0i-58" style="edgeStyle=orthogonalEdgeStyle;rounded=0;orthogonalLoop=1;jettySize=auto;html=1;exitX=0.5;exitY=0;exitDx=0;exitDy=0;entryX=0.5;entryY=1;entryDx=0;entryDy=0;" parent="1" source="S2qD3MZKqQ3I_0Lx5R0i-6" target="5MxlWK7CNzng2qLuo6eM-1" edge="1">
          <mxGeometry relative="1" as="geometry">
            <mxPoint x="223.43200000000002" y="329.52" as="targetPoint" />
          </mxGeometry>
        </mxCell>
        <mxCell id="S2qD3MZKqQ3I_0Lx5R0i-61" value="Karten vorhanden" style="edgeLabel;html=1;align=center;verticalAlign=middle;resizable=0;points=[];" parent="S2qD3MZKqQ3I_0Lx5R0i-58" vertex="1" connectable="0">
          <mxGeometry x="0.1472" y="1" relative="1" as="geometry">
            <mxPoint x="-19" y="43" as="offset" />
          </mxGeometry>
        </mxCell>
        <mxCell id="S2qD3MZKqQ3I_0Lx5R0i-76" value="neuer Zug mÃ¶glich" style="edgeStyle=orthogonalEdgeStyle;rounded=0;orthogonalLoop=1;jettySize=auto;html=1;" parent="1" source="S2qD3MZKqQ3I_0Lx5R0i-53" target="S2qD3MZKqQ3I_0Lx5R0i-73" edge="1">
          <mxGeometry x="-0.7826" y="-20" relative="1" as="geometry">
            <mxPoint x="1710" y="460" as="sourcePoint" />
            <mxPoint x="1830" y="460" as="targetPoint" />
            <Array as="points">
              <mxPoint x="1700" y="387" />
            </Array>
            <mxPoint as="offset" />
          </mxGeometry>
        </mxCell>
        <mxCell id="S2qD3MZKqQ3I_0Lx5R0i-82" style="edgeStyle=orthogonalEdgeStyle;rounded=0;orthogonalLoop=1;jettySize=auto;html=1;exitX=1;exitY=0.5;exitDx=0;exitDy=0;entryX=0.5;entryY=0;entryDx=0;entryDy=0;" parent="1" source="S2qD3MZKqQ3I_0Lx5R0i-73" target="S2qD3MZKqQ3I_0Lx5R0i-15" edge="1">
          <mxGeometry relative="1" as="geometry" />
        </mxCell>
        <mxCell id="S2qD3MZKqQ3I_0Lx5R0i-83" value="kein neuer Zug gewollt" style="edgeLabel;html=1;align=center;verticalAlign=middle;resizable=0;points=[];" parent="S2qD3MZKqQ3I_0Lx5R0i-82" vertex="1" connectable="0">
          <mxGeometry x="-0.6261" y="3" relative="1" as="geometry">
            <mxPoint x="36" y="-4" as="offset" />
          </mxGeometry>
        </mxCell>
        <mxCell id="S2qD3MZKqQ3I_0Lx5R0i-73" value="" style="rhombus;whiteSpace=wrap;html=1;" parent="1" vertex="1">
          <mxGeometry x="1780" y="372" width="20" height="30" as="geometry" />
        </mxCell>
        <mxCell id="S2qD3MZKqQ3I_0Lx5R0i-81" style="edgeStyle=orthogonalEdgeStyle;rounded=0;orthogonalLoop=1;jettySize=auto;html=1;exitX=0.5;exitY=0;exitDx=0;exitDy=0;entryX=0.5;entryY=0;entryDx=0;entryDy=0;" parent="1" source="S2qD3MZKqQ3I_0Lx5R0i-73" target="5MxlWK7CNzng2qLuo6eM-6" edge="1">
          <mxGeometry relative="1" as="geometry">
            <Array as="points">
              <mxPoint x="1790" y="320" />
              <mxPoint x="1050" y="320" />
            </Array>
            <mxPoint x="1063.6639999999998" y="400.2399999999998" as="targetPoint" />
          </mxGeometry>
        </mxCell>
        <mxCell id="S2qD3MZKqQ3I_0Lx5R0i-87" value="neuer Zug gewollt" style="edgeLabel;html=1;align=center;verticalAlign=middle;resizable=0;points=[];" parent="S2qD3MZKqQ3I_0Lx5R0i-81" vertex="1" connectable="0">
          <mxGeometry x="-0.6891" relative="1" as="geometry">
            <mxPoint x="-11" y="-10" as="offset" />
          </mxGeometry>
        </mxCell>
        <mxCell id="S2qD3MZKqQ3I_0Lx5R0i-88" value="" style="ellipse;html=1;shape=endState;fillColor=#000000;strokeColor=#ff0000;" parent="1" vertex="1">
          <mxGeometry x="1975" y="570" width="30" height="30" as="geometry" />
        </mxCell>
        <mxCell id="S2qD3MZKqQ3I_0Lx5R0i-90" value="" style="ellipse;html=1;shape=startState;fillColor=#000000;strokeColor=#ff0000;" parent="1" vertex="1">
          <mxGeometry x="40" y="330" width="30" height="30" as="geometry" />
        </mxCell>
        <mxCell id="S2qD3MZKqQ3I_0Lx5R0i-91" value="" style="edgeStyle=orthogonalEdgeStyle;html=1;verticalAlign=bottom;endArrow=open;endSize=8;strokeColor=#ff0000;rounded=0;" parent="1" source="S2qD3MZKqQ3I_0Lx5R0i-90" edge="1">
          <mxGeometry relative="1" as="geometry">
            <mxPoint x="55" y="420" as="targetPoint" />
          </mxGeometry>
        </mxCell>
        <mxCell id="5MxlWK7CNzng2qLuo6eM-1" value="" style="rhombus;whiteSpace=wrap;html=1;" vertex="1" parent="1">
          <mxGeometry x="210" y="280" width="30" height="40" as="geometry" />
        </mxCell>
        <mxCell id="5MxlWK7CNzng2qLuo6eM-2" style="edgeStyle=orthogonalEdgeStyle;rounded=0;orthogonalLoop=1;jettySize=auto;html=1;exitX=1;exitY=0.5;exitDx=0;exitDy=0;entryX=0.808;entryY=-0.017;entryDx=0;entryDy=0;entryPerimeter=0;" edge="1" parent="1" source="S2qD3MZKqQ3I_0Lx5R0i-3" target="S2qD3MZKqQ3I_0Lx5R0i-7">
          <mxGeometry relative="1" as="geometry" />
        </mxCell>
        <mxCell id="5MxlWK7CNzng2qLuo6eM-6" value="" style="rhombus;whiteSpace=wrap;html=1;" vertex="1" parent="1">
          <mxGeometry x="1040" y="445" width="20" height="30" as="geometry" />
        </mxCell>
      </root>
    </mxGraphModel>
  </diagram>
</mxfile>
